<mxfile host="app.diagrams.net" agent="Mozilla/5.0 (Windows NT 10.0; Win64; x64) AppleWebKit/537.36 (KHTML, like Gecko) Chrome/131.0.0.0 Safari/537.36" version="26.0.5">
  <diagram name="หน้า-1" id="eM3wkwZFWWuE43s6nOiS">
    <mxGraphModel dx="2211" dy="625" grid="1" gridSize="10" guides="1" tooltips="1" connect="1" arrows="1" fold="1" page="1" pageScale="1" pageWidth="827" pageHeight="1169" math="0" shadow="0">
      <root>
        <mxCell id="0" />
        <mxCell id="1" parent="0" />
        <mxCell id="BN5Ov0yuJtXu7fKofO-b-1" value="Parties" style="rounded=1;whiteSpace=wrap;html=1;" parent="1" vertex="1">
          <mxGeometry x="230" y="370" width="120" height="60" as="geometry" />
        </mxCell>
        <mxCell id="BN5Ov0yuJtXu7fKofO-b-2" value="People" style="rounded=1;whiteSpace=wrap;html=1;" parent="1" vertex="1">
          <mxGeometry x="140" y="500" width="120" height="60" as="geometry" />
        </mxCell>
        <mxCell id="BN5Ov0yuJtXu7fKofO-b-3" value="" style="fontSize=12;html=1;endArrow=ERone;endFill=1;rounded=0;" parent="1" source="BN5Ov0yuJtXu7fKofO-b-1" target="BN5Ov0yuJtXu7fKofO-b-2" edge="1">
          <mxGeometry width="100" height="100" relative="1" as="geometry">
            <mxPoint x="430" y="520" as="sourcePoint" />
            <mxPoint x="530" y="420" as="targetPoint" />
          </mxGeometry>
        </mxCell>
        <mxCell id="BN5Ov0yuJtXu7fKofO-b-4" value="PartyRoles" style="rounded=1;whiteSpace=wrap;html=1;" parent="1" vertex="1">
          <mxGeometry x="40" y="370" width="120" height="60" as="geometry" />
        </mxCell>
        <mxCell id="BN5Ov0yuJtXu7fKofO-b-5" value="" style="fontSize=12;html=1;endArrow=ERoneToMany;rounded=0;" parent="1" source="BN5Ov0yuJtXu7fKofO-b-1" target="BN5Ov0yuJtXu7fKofO-b-4" edge="1">
          <mxGeometry width="100" height="100" relative="1" as="geometry">
            <mxPoint x="310" y="410" as="sourcePoint" />
            <mxPoint x="410" y="310" as="targetPoint" />
          </mxGeometry>
        </mxCell>
        <mxCell id="BN5Ov0yuJtXu7fKofO-b-6" value="PartyRoleTypes" style="rounded=1;whiteSpace=wrap;html=1;" parent="1" vertex="1">
          <mxGeometry x="-160" y="370" width="120" height="60" as="geometry" />
        </mxCell>
        <mxCell id="BN5Ov0yuJtXu7fKofO-b-8" value="" style="fontSize=12;html=1;endArrow=ERoneToMany;rounded=0;" parent="1" source="BN5Ov0yuJtXu7fKofO-b-6" target="BN5Ov0yuJtXu7fKofO-b-4" edge="1">
          <mxGeometry width="100" height="100" relative="1" as="geometry">
            <mxPoint x="240" y="410" as="sourcePoint" />
            <mxPoint x="170" y="410" as="targetPoint" />
          </mxGeometry>
        </mxCell>
        <mxCell id="BN5Ov0yuJtXu7fKofO-b-9" value="Animals" style="rounded=1;whiteSpace=wrap;html=1;" parent="1" vertex="1">
          <mxGeometry x="324" y="500" width="120" height="60" as="geometry" />
        </mxCell>
        <mxCell id="BN5Ov0yuJtXu7fKofO-b-10" value="" style="fontSize=12;html=1;endArrow=ERone;endFill=1;rounded=0;" parent="1" source="BN5Ov0yuJtXu7fKofO-b-1" target="BN5Ov0yuJtXu7fKofO-b-9" edge="1">
          <mxGeometry width="100" height="100" relative="1" as="geometry">
            <mxPoint x="275" y="440" as="sourcePoint" />
            <mxPoint x="215" y="510" as="targetPoint" />
          </mxGeometry>
        </mxCell>
        <mxCell id="BN5Ov0yuJtXu7fKofO-b-11" value="Organizations" style="rounded=1;whiteSpace=wrap;html=1;" parent="1" vertex="1">
          <mxGeometry x="430" y="370" width="120" height="60" as="geometry" />
        </mxCell>
        <mxCell id="BN5Ov0yuJtXu7fKofO-b-12" value="" style="fontSize=12;html=1;endArrow=ERone;endFill=1;rounded=0;" parent="1" source="BN5Ov0yuJtXu7fKofO-b-1" target="BN5Ov0yuJtXu7fKofO-b-11" edge="1">
          <mxGeometry width="100" height="100" relative="1" as="geometry">
            <mxPoint x="322" y="440" as="sourcePoint" />
            <mxPoint x="372" y="510" as="targetPoint" />
          </mxGeometry>
        </mxCell>
        <mxCell id="BN5Ov0yuJtXu7fKofO-b-13" value="RelationshipPartyRoles" style="rounded=1;whiteSpace=wrap;html=1;" parent="1" vertex="1">
          <mxGeometry x="20" y="230" width="160" height="60" as="geometry" />
        </mxCell>
        <mxCell id="BN5Ov0yuJtXu7fKofO-b-14" value="from" style="fontSize=12;html=1;endArrow=ERone;endFill=1;rounded=0;edgeStyle=orthogonalEdgeStyle;" parent="1" source="BN5Ov0yuJtXu7fKofO-b-4" target="BN5Ov0yuJtXu7fKofO-b-13" edge="1">
          <mxGeometry width="100" height="100" relative="1" as="geometry">
            <mxPoint x="70" y="370" as="sourcePoint" />
            <mxPoint x="70" y="270" as="targetPoint" />
            <Array as="points">
              <mxPoint x="70" y="360" />
              <mxPoint x="70" y="360" />
            </Array>
          </mxGeometry>
        </mxCell>
        <mxCell id="BN5Ov0yuJtXu7fKofO-b-16" value="to" style="fontSize=12;html=1;endArrow=ERone;endFill=1;rounded=0;edgeStyle=orthogonalEdgeStyle;" parent="1" source="BN5Ov0yuJtXu7fKofO-b-4" target="BN5Ov0yuJtXu7fKofO-b-13" edge="1">
          <mxGeometry width="100" height="100" relative="1" as="geometry">
            <mxPoint x="80" y="380" as="sourcePoint" />
            <mxPoint x="80" y="300" as="targetPoint" />
            <Array as="points">
              <mxPoint x="130" y="360" />
              <mxPoint x="130" y="360" />
            </Array>
          </mxGeometry>
        </mxCell>
        <mxCell id="BN5Ov0yuJtXu7fKofO-b-17" value="RelationshipPartyRoleTypes" style="rounded=1;whiteSpace=wrap;html=1;" parent="1" vertex="1">
          <mxGeometry x="-240" y="230" width="190" height="60" as="geometry" />
        </mxCell>
        <mxCell id="BN5Ov0yuJtXu7fKofO-b-18" value="" style="fontSize=12;html=1;endArrow=ERoneToMany;rounded=0;" parent="1" source="BN5Ov0yuJtXu7fKofO-b-17" target="BN5Ov0yuJtXu7fKofO-b-13" edge="1">
          <mxGeometry width="100" height="100" relative="1" as="geometry">
            <mxPoint x="-30" y="410" as="sourcePoint" />
            <mxPoint x="50" y="410" as="targetPoint" />
          </mxGeometry>
        </mxCell>
        <mxCell id="XEiuoiAmSn57xt8Vm_yF-1" value="PartiesService" style="rounded=0;whiteSpace=wrap;html=1;" vertex="1" parent="1">
          <mxGeometry x="210" y="30" width="120" height="60" as="geometry" />
        </mxCell>
      </root>
    </mxGraphModel>
  </diagram>
</mxfile>
